<mxfile host="Electron" modified="2024-03-06T04:48:03.278Z" agent="Mozilla/5.0 (Windows NT 10.0; Win64; x64) AppleWebKit/537.36 (KHTML, like Gecko) draw.io/23.1.5 Chrome/120.0.6099.109 Electron/28.1.0 Safari/537.36" etag="q7cHeSAMRgxp0b8RbO2_" version="23.1.5" type="device" pages="6">
  <diagram id="01P4pmfT0BHUnYCEVexH" name="IT">
    <mxGraphModel dx="1418" dy="820" grid="1" gridSize="10" guides="1" tooltips="1" connect="1" arrows="1" fold="1" page="1" pageScale="1" pageWidth="850" pageHeight="1100" math="0" shadow="0">
      <root>
        <mxCell id="0" />
        <mxCell id="1" parent="0" />
        <mxCell id="fzaPFRfBO-P-haPp9TLj-1" value="Masuk" style="ellipse;whiteSpace=wrap;html=1;aspect=fixed;fillColor=#dae8fc;strokeColor=#6c8ebf;" parent="1" vertex="1">
          <mxGeometry x="415" y="40" width="70" height="70" as="geometry" />
        </mxCell>
        <mxCell id="fzaPFRfBO-P-haPp9TLj-5" value="" style="endArrow=classic;html=1;fillColor=#ffe6cc;strokeColor=#d79b00;" parent="1" target="HFyb4Fh-DRCugXibZMhr-1" edge="1">
          <mxGeometry width="50" height="50" relative="1" as="geometry">
            <mxPoint x="450" y="110" as="sourcePoint" />
            <mxPoint x="470" y="150" as="targetPoint" />
            <Array as="points">
              <mxPoint x="450" y="140" />
            </Array>
          </mxGeometry>
        </mxCell>
        <mxCell id="fzaPFRfBO-P-haPp9TLj-20" value="Apakah username dan password sesuai?" style="rhombus;whiteSpace=wrap;html=1;fillColor=#ffe6cc;strokeColor=#d79b00;" parent="1" vertex="1">
          <mxGeometry x="375" y="240" width="140" height="110" as="geometry" />
        </mxCell>
        <mxCell id="fzaPFRfBO-P-haPp9TLj-23" style="edgeStyle=orthogonalEdgeStyle;rounded=0;orthogonalLoop=1;jettySize=auto;html=1;exitX=1;exitY=0.5;exitDx=0;exitDy=0;fillColor=#ffe6cc;strokeColor=#d79b00;" parent="1" source="fzaPFRfBO-P-haPp9TLj-20" edge="1">
          <mxGeometry relative="1" as="geometry">
            <mxPoint x="515" y="170" as="targetPoint" />
            <mxPoint x="545" y="295" as="sourcePoint" />
            <Array as="points">
              <mxPoint x="555" y="295" />
              <mxPoint x="555" y="170" />
            </Array>
          </mxGeometry>
        </mxCell>
        <mxCell id="fzaPFRfBO-P-haPp9TLj-25" value="Tidak" style="text;html=1;strokeColor=none;fillColor=none;align=center;verticalAlign=middle;whiteSpace=wrap;rounded=0;" parent="1" vertex="1">
          <mxGeometry x="510" y="260" width="40" height="20" as="geometry" />
        </mxCell>
        <mxCell id="fzaPFRfBO-P-haPp9TLj-37" value="Berhasil masuk fitur Data Guru, Data Siswa dan Generate Laporan" style="rounded=0;whiteSpace=wrap;html=1;fillColor=#fad9d5;strokeColor=#ae4132;" parent="1" vertex="1">
          <mxGeometry x="380" y="390" width="130" height="60" as="geometry" />
        </mxCell>
        <mxCell id="fzaPFRfBO-P-haPp9TLj-47" value="" style="endArrow=classic;html=1;entryX=0.5;entryY=0;entryDx=0;entryDy=0;fillColor=#ffe6cc;strokeColor=#d79b00;" parent="1" edge="1">
          <mxGeometry width="50" height="50" relative="1" as="geometry">
            <mxPoint x="445" y="200" as="sourcePoint" />
            <mxPoint x="444.5" y="240" as="targetPoint" />
          </mxGeometry>
        </mxCell>
        <mxCell id="fzaPFRfBO-P-haPp9TLj-54" value="" style="endArrow=classic;html=1;entryX=0.5;entryY=0;entryDx=0;entryDy=0;fillColor=#ffe6cc;strokeColor=#d79b00;" parent="1" edge="1">
          <mxGeometry width="50" height="50" relative="1" as="geometry">
            <mxPoint x="445" y="350" as="sourcePoint" />
            <mxPoint x="444.5" y="390" as="targetPoint" />
          </mxGeometry>
        </mxCell>
        <mxCell id="fzaPFRfBO-P-haPp9TLj-55" value="Ya" style="text;html=1;strokeColor=none;fillColor=none;align=center;verticalAlign=middle;whiteSpace=wrap;rounded=0;" parent="1" vertex="1">
          <mxGeometry x="455" y="360" width="40" height="20" as="geometry" />
        </mxCell>
        <mxCell id="fzaPFRfBO-P-haPp9TLj-58" value="Selesai" style="ellipse;whiteSpace=wrap;html=1;aspect=fixed;fillColor=#e1d5e7;strokeColor=#9673a6;" parent="1" vertex="1">
          <mxGeometry x="397.5" y="1130" width="70" height="70" as="geometry" />
        </mxCell>
        <mxCell id="fzaPFRfBO-P-haPp9TLj-59" value="" style="endArrow=classic;html=1;fillColor=#ffe6cc;strokeColor=#d79b00;entryX=0.5;entryY=0;entryDx=0;entryDy=0;" parent="1" target="3xAImnwF91qaBJQoZjOn-1" edge="1">
          <mxGeometry width="50" height="50" relative="1" as="geometry">
            <mxPoint x="436.75" y="810" as="sourcePoint" />
            <mxPoint x="448.75" y="870" as="targetPoint" />
          </mxGeometry>
        </mxCell>
        <mxCell id="3xAImnwF91qaBJQoZjOn-1" value="&lt;span style=&quot;color: rgba(0 , 0 , 0 , 0) ; font-family: monospace ; font-size: 0px&quot;&gt;%3CmxGraphModel%3E%3Croot%3E%3CmxCell%20id%3D%220%22%2F%3E%3CmxCell%20id%3D%221%22%20parent%3D%220%22%2F%3E%3CmxCell%20id%3D%222%22%20value%3D%22%26lt%3Bspan%20style%3D%26quot%3Bcolor%3A%20rgb(0%2C%200%2C%200)%3B%20font-family%3A%20helvetica%3B%20font-size%3A%2012px%3B%20font-style%3A%20normal%3B%20font-weight%3A%20400%3B%20letter-spacing%3A%20normal%3B%20text-align%3A%20center%3B%20text-indent%3A%200px%3B%20text-transform%3A%20none%3B%20word-spacing%3A%200px%3B%20background-color%3A%20rgb(248%2C%20249%2C%20250)%3B%26quot%3B%26gt%3BGuru%20logout%20dari%26amp%3Bnbsp%3B%26lt%3B%2Fspan%26gt%3B%26lt%3Bbr%20style%3D%26quot%3Bcolor%3A%20rgb(0%2C%200%2C%200)%3B%20font-family%3A%20helvetica%3B%20font-size%3A%2012px%3B%20font-style%3A%20normal%3B%20font-weight%3A%20400%3B%20letter-spacing%3A%20normal%3B%20text-align%3A%20center%3B%20text-indent%3A%200px%3B%20text-transform%3A%20none%3B%20word-spacing%3A%200px%3B%20background-color%3A%20rgb(248%2C%20249%2C%20250)%3B%26quot%3B%26gt%3B%26lt%3Bspan%20style%3D%26quot%3Bcolor%3A%20rgb(0%2C%200%2C%200)%3B%20font-family%3A%20helvetica%3B%20font-size%3A%2012px%3B%20font-style%3A%20normal%3B%20font-weight%3A%20400%3B%20letter-spacing%3A%20normal%3B%20text-align%3A%20center%3B%20text-indent%3A%200px%3B%20text-transform%3A%20none%3B%20word-spacing%3A%200px%3B%20background-color%3A%20rgb(248%2C%20249%2C%20250)%3B%26quot%3B%26gt%3Bwebsite%20jurusan%20rpl%26lt%3B%2Fspan%26gt%3B%22%20style%3D%22text%3BwhiteSpace%3Dwrap%3Bhtml%3D1%3B%22%20vertex%3D%221%22%20parent%3D%221%22%3E%3CmxGeometry%20x%3D%22570%22%20y%3D%22740%22%20width%3D%22130%22%20height%3D%2240%22%20as%3D%22geometry%22%2F%3E%3C%2FmxCell%3E%3C%2Froot%3E%3C%2FmxGraphModel%3E&lt;/span&gt;" style="whiteSpace=wrap;html=1;strokeWidth=2;" parent="1" vertex="1">
          <mxGeometry x="365" y="1020" width="135" height="80" as="geometry" />
        </mxCell>
        <mxCell id="3xAImnwF91qaBJQoZjOn-2" value="&lt;span style=&quot;color: rgb(0 , 0 , 0) ; font-family: &amp;#34;helvetica&amp;#34; ; font-size: 12px ; font-style: normal ; font-weight: 400 ; letter-spacing: normal ; text-align: center ; text-indent: 0px ; text-transform: none ; word-spacing: 0px ; background-color: rgb(248 , 249 , 250)&quot;&gt;IT logout dari&amp;nbsp;&lt;/span&gt;&lt;br style=&quot;color: rgb(0 , 0 , 0) ; font-family: &amp;#34;helvetica&amp;#34; ; font-size: 12px ; font-style: normal ; font-weight: 400 ; letter-spacing: normal ; text-align: center ; text-indent: 0px ; text-transform: none ; word-spacing: 0px ; background-color: rgb(248 , 249 , 250)&quot;&gt;&lt;span style=&quot;color: rgb(0 , 0 , 0) ; font-family: &amp;#34;helvetica&amp;#34; ; font-size: 12px ; font-style: normal ; font-weight: 400 ; letter-spacing: normal ; text-align: center ; text-indent: 0px ; text-transform: none ; word-spacing: 0px ; background-color: rgb(248 , 249 , 250)&quot;&gt;website jurusan rpl&lt;/span&gt;" style="text;whiteSpace=wrap;html=1;" parent="1" vertex="1">
          <mxGeometry x="372.5" y="1040" width="130" height="40" as="geometry" />
        </mxCell>
        <mxCell id="3xAImnwF91qaBJQoZjOn-7" value="" style="endArrow=classic;html=1;entryX=0.5;entryY=0;entryDx=0;entryDy=0;fillColor=#ffe6cc;strokeColor=#d79b00;exitX=0.5;exitY=1;exitDx=0;exitDy=0;" parent="1" source="3xAImnwF91qaBJQoZjOn-1" edge="1">
          <mxGeometry width="50" height="50" relative="1" as="geometry">
            <mxPoint x="432.5" y="1110" as="sourcePoint" />
            <mxPoint x="432" y="1130" as="targetPoint" />
          </mxGeometry>
        </mxCell>
        <mxCell id="HFyb4Fh-DRCugXibZMhr-1" value="login(Input username dan password sebagai IT)" style="shape=parallelogram;perimeter=parallelogramPerimeter;whiteSpace=wrap;html=1;fixedSize=1;fillColor=#f5f5f5;strokeColor=#666666;fontColor=#333333;" parent="1" vertex="1">
          <mxGeometry x="362.5" y="140" width="155" height="60" as="geometry" />
        </mxCell>
        <mxCell id="HFyb4Fh-DRCugXibZMhr-7" value="" style="endArrow=classic;html=1;entryX=0.5;entryY=0;entryDx=0;entryDy=0;fillColor=#ffe6cc;strokeColor=#d79b00;" parent="1" edge="1">
          <mxGeometry width="50" height="50" relative="1" as="geometry">
            <mxPoint x="445" y="450" as="sourcePoint" />
            <mxPoint x="444.66" y="470" as="targetPoint" />
          </mxGeometry>
        </mxCell>
        <mxCell id="s9-n_5mUN9KdS3o10jSw-1" value="&lt;span&gt;menginput data guru, siswa,&amp;nbsp;&lt;br&gt;nilai, jadwal dan generate laporan&amp;nbsp;&lt;br&gt;&lt;/span&gt;" style="shape=parallelogram;html=1;strokeWidth=2;perimeter=parallelogramPerimeter;whiteSpace=wrap;rounded=1;arcSize=12;size=0.23;" parent="1" vertex="1">
          <mxGeometry x="365" y="470" width="175" height="70" as="geometry" />
        </mxCell>
        <mxCell id="s9-n_5mUN9KdS3o10jSw-2" value="menginput data yang salah" style="shape=parallelogram;html=1;strokeWidth=2;perimeter=parallelogramPerimeter;whiteSpace=wrap;rounded=1;arcSize=12;size=0.23;" parent="1" vertex="1">
          <mxGeometry x="670" y="580" width="100" height="60" as="geometry" />
        </mxCell>
        <mxCell id="s9-n_5mUN9KdS3o10jSw-4" value="Apakah data sudah benar?" style="strokeWidth=2;html=1;shape=mxgraph.flowchart.decision;whiteSpace=wrap;" parent="1" vertex="1">
          <mxGeometry x="395" y="570" width="100" height="100" as="geometry" />
        </mxCell>
        <mxCell id="s9-n_5mUN9KdS3o10jSw-5" value="Memperbaiki data yang salah" style="rounded=1;whiteSpace=wrap;html=1;absoluteArcSize=1;arcSize=14;strokeWidth=2;" parent="1" vertex="1">
          <mxGeometry x="530" y="560" width="100" height="100" as="geometry" />
        </mxCell>
        <mxCell id="s9-n_5mUN9KdS3o10jSw-6" value="data disimpan ke dalam database" style="rounded=1;whiteSpace=wrap;html=1;absoluteArcSize=1;arcSize=14;strokeWidth=2;" parent="1" vertex="1">
          <mxGeometry x="388.75" y="690" width="100" height="100" as="geometry" />
        </mxCell>
        <mxCell id="s9-n_5mUN9KdS3o10jSw-7" value="membuat laporan dan data yang ke simpan di database" style="rounded=1;whiteSpace=wrap;html=1;absoluteArcSize=1;arcSize=14;strokeWidth=2;" parent="1" vertex="1">
          <mxGeometry x="390" y="810" width="100" height="100" as="geometry" />
        </mxCell>
        <mxCell id="s9-n_5mUN9KdS3o10jSw-8" value="lapora berhasil dibuat" style="shape=parallelogram;html=1;strokeWidth=2;perimeter=parallelogramPerimeter;whiteSpace=wrap;rounded=1;arcSize=12;size=0.23;" parent="1" vertex="1">
          <mxGeometry x="382.5" y="930" width="100" height="60" as="geometry" />
        </mxCell>
        <mxCell id="1N2o_T_mQsOmLRvC2dGR-1" value="" style="endArrow=classic;html=1;rounded=0;" parent="1" edge="1">
          <mxGeometry width="50" height="50" relative="1" as="geometry">
            <mxPoint x="400" y="750" as="sourcePoint" />
            <mxPoint x="450" y="700" as="targetPoint" />
          </mxGeometry>
        </mxCell>
      </root>
    </mxGraphModel>
  </diagram>
  <diagram id="CpbqBGDQRdX6WhU111-1" name="guru">
    <mxGraphModel dx="1086" dy="798" grid="1" gridSize="10" guides="1" tooltips="1" connect="1" arrows="1" fold="1" page="1" pageScale="1" pageWidth="850" pageHeight="1100" math="0" shadow="0">
      <root>
        <mxCell id="XSIta2rH954Va_CQSgr--0" />
        <mxCell id="XSIta2rH954Va_CQSgr--1" parent="XSIta2rH954Va_CQSgr--0" />
        <mxCell id="Mb1FV0zSAiqAY1EDDJCU-12" style="edgeStyle=orthogonalEdgeStyle;rounded=0;orthogonalLoop=1;jettySize=auto;html=1;exitX=0.5;exitY=1;exitDx=0;exitDy=0;exitPerimeter=0;entryX=0.5;entryY=0;entryDx=0;entryDy=0;" edge="1" parent="XSIta2rH954Va_CQSgr--1" source="2L2SDfKwqdfR8ez8V3IS-0" target="2L2SDfKwqdfR8ez8V3IS-1">
          <mxGeometry relative="1" as="geometry" />
        </mxCell>
        <mxCell id="2L2SDfKwqdfR8ez8V3IS-0" value="Mulai" style="strokeWidth=2;html=1;shape=mxgraph.flowchart.start_2;whiteSpace=wrap;fillColor=#fff2cc;strokeColor=#d6b656;" vertex="1" parent="XSIta2rH954Va_CQSgr--1">
          <mxGeometry x="390" y="40" width="70" height="70" as="geometry" />
        </mxCell>
        <mxCell id="Mb1FV0zSAiqAY1EDDJCU-16" value="" style="edgeStyle=orthogonalEdgeStyle;rounded=0;orthogonalLoop=1;jettySize=auto;html=1;" edge="1" parent="XSIta2rH954Va_CQSgr--1" source="2L2SDfKwqdfR8ez8V3IS-1" target="NoGGXLgSQqaRkjJQro0n-0">
          <mxGeometry relative="1" as="geometry" />
        </mxCell>
        <mxCell id="2L2SDfKwqdfR8ez8V3IS-1" value="Masuk ke halaman login&amp;nbsp;" style="rounded=1;whiteSpace=wrap;html=1;absoluteArcSize=1;arcSize=14;strokeWidth=2;fillColor=#d5e8d4;strokeColor=#82b366;" vertex="1" parent="XSIta2rH954Va_CQSgr--1">
          <mxGeometry x="370" y="140" width="110" height="60" as="geometry" />
        </mxCell>
        <mxCell id="Mb1FV0zSAiqAY1EDDJCU-17" value="" style="edgeStyle=orthogonalEdgeStyle;rounded=0;orthogonalLoop=1;jettySize=auto;html=1;" edge="1" parent="XSIta2rH954Va_CQSgr--1" source="NoGGXLgSQqaRkjJQro0n-0" target="NoGGXLgSQqaRkjJQro0n-3">
          <mxGeometry relative="1" as="geometry" />
        </mxCell>
        <mxCell id="NoGGXLgSQqaRkjJQro0n-0" value="Input username dan &lt;br&gt;password sebagai&lt;br&gt;&amp;nbsp;guru rpl" style="shape=parallelogram;html=1;strokeWidth=2;perimeter=parallelogramPerimeter;whiteSpace=wrap;rounded=1;arcSize=12;size=0.23;fillColor=#e1d5e7;strokeColor=#9673a6;" vertex="1" parent="XSIta2rH954Va_CQSgr--1">
          <mxGeometry x="335" y="230" width="180" height="60" as="geometry" />
        </mxCell>
        <mxCell id="Mb1FV0zSAiqAY1EDDJCU-5" style="edgeStyle=orthogonalEdgeStyle;rounded=0;orthogonalLoop=1;jettySize=auto;html=1;exitX=0.5;exitY=0;exitDx=0;exitDy=0;exitPerimeter=0;" edge="1" parent="XSIta2rH954Va_CQSgr--1" source="NoGGXLgSQqaRkjJQro0n-3" target="NoGGXLgSQqaRkjJQro0n-0">
          <mxGeometry relative="1" as="geometry">
            <Array as="points">
              <mxPoint x="550" y="380" />
              <mxPoint x="550" y="270" />
            </Array>
          </mxGeometry>
        </mxCell>
        <mxCell id="Mb1FV0zSAiqAY1EDDJCU-18" value="Tidak" style="edgeLabel;html=1;align=center;verticalAlign=middle;resizable=0;points=[];" vertex="1" connectable="0" parent="Mb1FV0zSAiqAY1EDDJCU-5">
          <mxGeometry x="-0.1831" y="-2" relative="1" as="geometry">
            <mxPoint x="-22" y="-15" as="offset" />
          </mxGeometry>
        </mxCell>
        <mxCell id="ldhLAxB-grZC15N23IVy-1" value="" style="edgeStyle=orthogonalEdgeStyle;rounded=0;orthogonalLoop=1;jettySize=auto;html=1;" edge="1" parent="XSIta2rH954Va_CQSgr--1" source="NoGGXLgSQqaRkjJQro0n-3" target="ldhLAxB-grZC15N23IVy-0">
          <mxGeometry relative="1" as="geometry" />
        </mxCell>
        <mxCell id="NoGGXLgSQqaRkjJQro0n-3" value="Apakah username dan Password sesuai?" style="strokeWidth=2;html=1;shape=mxgraph.flowchart.decision;whiteSpace=wrap;direction=south;" vertex="1" parent="XSIta2rH954Va_CQSgr--1">
          <mxGeometry x="360" y="320" width="130" height="120" as="geometry" />
        </mxCell>
        <mxCell id="ldhLAxB-grZC15N23IVy-5" value="" style="edgeStyle=orthogonalEdgeStyle;rounded=0;orthogonalLoop=1;jettySize=auto;html=1;" edge="1" parent="XSIta2rH954Va_CQSgr--1" source="ldhLAxB-grZC15N23IVy-0" target="ldhLAxB-grZC15N23IVy-4">
          <mxGeometry relative="1" as="geometry" />
        </mxCell>
        <mxCell id="ldhLAxB-grZC15N23IVy-0" value="Berhasil masuk sebagai guru&amp;nbsp;" style="whiteSpace=wrap;html=1;strokeWidth=2;" vertex="1" parent="XSIta2rH954Va_CQSgr--1">
          <mxGeometry x="365" y="480" width="120" height="60" as="geometry" />
        </mxCell>
        <mxCell id="ldhLAxB-grZC15N23IVy-4" value="Guru melihat fitur&amp;nbsp;&lt;span style=&quot;font-size: 11.0pt ; line-height: 107% ; font-family: &amp;#34;calibri&amp;#34; , sans-serif&quot;&gt;Data&lt;br&gt;Guru, Data Siswa dan Generate Laporan&lt;/span&gt;" style="whiteSpace=wrap;html=1;strokeWidth=2;" vertex="1" parent="XSIta2rH954Va_CQSgr--1">
          <mxGeometry x="358" y="580" width="135" height="80" as="geometry" />
        </mxCell>
        <mxCell id="ldhLAxB-grZC15N23IVy-11" value="Selesai" style="strokeWidth=2;html=1;shape=mxgraph.flowchart.start_2;whiteSpace=wrap;" vertex="1" parent="XSIta2rH954Va_CQSgr--1">
          <mxGeometry x="397.5" y="800" width="75" height="70" as="geometry" />
        </mxCell>
        <mxCell id="tuTqh4iINJ5OhWcei3BJ-1" value="&lt;span style=&quot;color: rgba(0 , 0 , 0 , 0) ; font-family: monospace ; font-size: 0px&quot;&gt;%3CmxGraphModel%3E%3Croot%3E%3CmxCell%20id%3D%220%22%2F%3E%3CmxCell%20id%3D%221%22%20parent%3D%220%22%2F%3E%3CmxCell%20id%3D%222%22%20value%3D%22%26lt%3Bspan%20style%3D%26quot%3Bcolor%3A%20rgb(0%2C%200%2C%200)%3B%20font-family%3A%20helvetica%3B%20font-size%3A%2012px%3B%20font-style%3A%20normal%3B%20font-weight%3A%20400%3B%20letter-spacing%3A%20normal%3B%20text-align%3A%20center%3B%20text-indent%3A%200px%3B%20text-transform%3A%20none%3B%20word-spacing%3A%200px%3B%20background-color%3A%20rgb(248%2C%20249%2C%20250)%3B%26quot%3B%26gt%3BGuru%20logout%20dari%26amp%3Bnbsp%3B%26lt%3B%2Fspan%26gt%3B%26lt%3Bbr%20style%3D%26quot%3Bcolor%3A%20rgb(0%2C%200%2C%200)%3B%20font-family%3A%20helvetica%3B%20font-size%3A%2012px%3B%20font-style%3A%20normal%3B%20font-weight%3A%20400%3B%20letter-spacing%3A%20normal%3B%20text-align%3A%20center%3B%20text-indent%3A%200px%3B%20text-transform%3A%20none%3B%20word-spacing%3A%200px%3B%20background-color%3A%20rgb(248%2C%20249%2C%20250)%3B%26quot%3B%26gt%3B%26lt%3Bspan%20style%3D%26quot%3Bcolor%3A%20rgb(0%2C%200%2C%200)%3B%20font-family%3A%20helvetica%3B%20font-size%3A%2012px%3B%20font-style%3A%20normal%3B%20font-weight%3A%20400%3B%20letter-spacing%3A%20normal%3B%20text-align%3A%20center%3B%20text-indent%3A%200px%3B%20text-transform%3A%20none%3B%20word-spacing%3A%200px%3B%20background-color%3A%20rgb(248%2C%20249%2C%20250)%3B%26quot%3B%26gt%3Bwebsite%20jurusan%20rpl%26lt%3B%2Fspan%26gt%3B%22%20style%3D%22text%3BwhiteSpace%3Dwrap%3Bhtml%3D1%3B%22%20vertex%3D%221%22%20parent%3D%221%22%3E%3CmxGeometry%20x%3D%22570%22%20y%3D%22740%22%20width%3D%22130%22%20height%3D%2240%22%20as%3D%22geometry%22%2F%3E%3C%2FmxCell%3E%3C%2Froot%3E%3C%2FmxGraphModel%3E&lt;/span&gt;" style="whiteSpace=wrap;html=1;strokeWidth=2;" vertex="1" parent="XSIta2rH954Va_CQSgr--1">
          <mxGeometry x="360.5" y="690" width="135" height="80" as="geometry" />
        </mxCell>
        <mxCell id="tuTqh4iINJ5OhWcei3BJ-3" value="&lt;span style=&quot;color: rgb(0, 0, 0); font-family: helvetica; font-size: 12px; font-style: normal; font-weight: 400; letter-spacing: normal; text-align: center; text-indent: 0px; text-transform: none; word-spacing: 0px; background-color: rgb(248, 249, 250);&quot;&gt;Guru logout dari&amp;nbsp;&lt;/span&gt;&lt;br style=&quot;color: rgb(0, 0, 0); font-family: helvetica; font-size: 12px; font-style: normal; font-weight: 400; letter-spacing: normal; text-align: center; text-indent: 0px; text-transform: none; word-spacing: 0px; background-color: rgb(248, 249, 250);&quot;&gt;&lt;span style=&quot;color: rgb(0, 0, 0); font-family: helvetica; font-size: 12px; font-style: normal; font-weight: 400; letter-spacing: normal; text-align: center; text-indent: 0px; text-transform: none; word-spacing: 0px; background-color: rgb(248, 249, 250);&quot;&gt;website jurusan rpl&lt;/span&gt;" style="text;whiteSpace=wrap;html=1;" vertex="1" parent="XSIta2rH954Va_CQSgr--1">
          <mxGeometry x="370" y="710" width="130" height="40" as="geometry" />
        </mxCell>
        <mxCell id="tuTqh4iINJ5OhWcei3BJ-5" value="" style="endArrow=classic;html=1;entryX=0.5;entryY=0;entryDx=0;entryDy=0;" edge="1" parent="XSIta2rH954Va_CQSgr--1" target="tuTqh4iINJ5OhWcei3BJ-1">
          <mxGeometry width="50" height="50" relative="1" as="geometry">
            <mxPoint x="428" y="660" as="sourcePoint" />
            <mxPoint x="475" y="610" as="targetPoint" />
          </mxGeometry>
        </mxCell>
        <mxCell id="tuTqh4iINJ5OhWcei3BJ-8" value="" style="endArrow=classic;html=1;entryX=0.5;entryY=0;entryDx=0;entryDy=0;" edge="1" parent="XSIta2rH954Va_CQSgr--1">
          <mxGeometry width="50" height="50" relative="1" as="geometry">
            <mxPoint x="434.5" y="770" as="sourcePoint" />
            <mxPoint x="434.5" y="800" as="targetPoint" />
          </mxGeometry>
        </mxCell>
        <mxCell id="JfIDnSdgi-UwOJW8DBnC-0" value="Ya" style="edgeLabel;html=1;align=center;verticalAlign=middle;resizable=0;points=[];" vertex="1" connectable="0" parent="XSIta2rH954Va_CQSgr--1">
          <mxGeometry x="540" y="340" as="geometry">
            <mxPoint x="-95" y="107" as="offset" />
          </mxGeometry>
        </mxCell>
      </root>
    </mxGraphModel>
  </diagram>
  <diagram id="okydZmcRsDQy5IjpLYRk" name="siswa">
    <mxGraphModel dx="1086" dy="798" grid="1" gridSize="10" guides="1" tooltips="1" connect="1" arrows="1" fold="1" page="1" pageScale="1" pageWidth="850" pageHeight="1100" math="0" shadow="0">
      <root>
        <mxCell id="AjO_xOM7wmH8VL26TnqX-0" />
        <mxCell id="AjO_xOM7wmH8VL26TnqX-1" parent="AjO_xOM7wmH8VL26TnqX-0" />
        <mxCell id="TEwER9SfueQxtKeRNvIy-0" value="" style="edgeStyle=orthogonalEdgeStyle;rounded=0;orthogonalLoop=1;jettySize=auto;html=1;" edge="1" parent="AjO_xOM7wmH8VL26TnqX-1" source="TEwER9SfueQxtKeRNvIy-1" target="TEwER9SfueQxtKeRNvIy-3">
          <mxGeometry relative="1" as="geometry" />
        </mxCell>
        <mxCell id="TEwER9SfueQxtKeRNvIy-1" value="Masuk ke halaman login&amp;nbsp;" style="rounded=1;whiteSpace=wrap;html=1;absoluteArcSize=1;arcSize=14;strokeWidth=2;fillColor=#d5e8d4;strokeColor=#82b366;" vertex="1" parent="AjO_xOM7wmH8VL26TnqX-1">
          <mxGeometry x="370" y="140" width="110" height="60" as="geometry" />
        </mxCell>
        <mxCell id="TEwER9SfueQxtKeRNvIy-2" value="" style="edgeStyle=orthogonalEdgeStyle;rounded=0;orthogonalLoop=1;jettySize=auto;html=1;" edge="1" parent="AjO_xOM7wmH8VL26TnqX-1" source="TEwER9SfueQxtKeRNvIy-3" target="TEwER9SfueQxtKeRNvIy-7">
          <mxGeometry relative="1" as="geometry" />
        </mxCell>
        <mxCell id="TEwER9SfueQxtKeRNvIy-3" value="Input username dan &lt;br&gt;password sebagai&lt;br&gt;siswa" style="shape=parallelogram;html=1;strokeWidth=2;perimeter=parallelogramPerimeter;whiteSpace=wrap;rounded=1;arcSize=12;size=0.23;fillColor=#e1d5e7;strokeColor=#9673a6;" vertex="1" parent="AjO_xOM7wmH8VL26TnqX-1">
          <mxGeometry x="335" y="230" width="180" height="60" as="geometry" />
        </mxCell>
        <mxCell id="TEwER9SfueQxtKeRNvIy-4" style="edgeStyle=orthogonalEdgeStyle;rounded=0;orthogonalLoop=1;jettySize=auto;html=1;exitX=0.5;exitY=0;exitDx=0;exitDy=0;exitPerimeter=0;" edge="1" parent="AjO_xOM7wmH8VL26TnqX-1" source="TEwER9SfueQxtKeRNvIy-7" target="TEwER9SfueQxtKeRNvIy-3">
          <mxGeometry relative="1" as="geometry">
            <Array as="points">
              <mxPoint x="550" y="380" />
              <mxPoint x="550" y="270" />
            </Array>
          </mxGeometry>
        </mxCell>
        <mxCell id="TEwER9SfueQxtKeRNvIy-5" value="Tidak" style="edgeLabel;html=1;align=center;verticalAlign=middle;resizable=0;points=[];" vertex="1" connectable="0" parent="TEwER9SfueQxtKeRNvIy-4">
          <mxGeometry x="-0.1831" y="-2" relative="1" as="geometry">
            <mxPoint x="-22" y="-15" as="offset" />
          </mxGeometry>
        </mxCell>
        <mxCell id="TEwER9SfueQxtKeRNvIy-6" value="" style="edgeStyle=orthogonalEdgeStyle;rounded=0;orthogonalLoop=1;jettySize=auto;html=1;" edge="1" parent="AjO_xOM7wmH8VL26TnqX-1" source="TEwER9SfueQxtKeRNvIy-7" target="TEwER9SfueQxtKeRNvIy-9">
          <mxGeometry relative="1" as="geometry" />
        </mxCell>
        <mxCell id="TEwER9SfueQxtKeRNvIy-7" value="Username dan Password berhasil" style="strokeWidth=2;html=1;shape=mxgraph.flowchart.decision;whiteSpace=wrap;direction=south;fillColor=#fff2cc;strokeColor=#d6b656;" vertex="1" parent="AjO_xOM7wmH8VL26TnqX-1">
          <mxGeometry x="360" y="320" width="130" height="120" as="geometry" />
        </mxCell>
        <mxCell id="TEwER9SfueQxtKeRNvIy-8" value="" style="edgeStyle=orthogonalEdgeStyle;rounded=0;orthogonalLoop=1;jettySize=auto;html=1;" edge="1" parent="AjO_xOM7wmH8VL26TnqX-1" source="TEwER9SfueQxtKeRNvIy-9" target="TEwER9SfueQxtKeRNvIy-11">
          <mxGeometry relative="1" as="geometry" />
        </mxCell>
        <mxCell id="TEwER9SfueQxtKeRNvIy-9" value="Berhasil masuk sebagai siswa" style="whiteSpace=wrap;html=1;strokeWidth=2;" vertex="1" parent="AjO_xOM7wmH8VL26TnqX-1">
          <mxGeometry x="365" y="480" width="120" height="60" as="geometry" />
        </mxCell>
        <mxCell id="TEwER9SfueQxtKeRNvIy-10" value="" style="edgeStyle=orthogonalEdgeStyle;rounded=0;orthogonalLoop=1;jettySize=auto;html=1;" edge="1" parent="AjO_xOM7wmH8VL26TnqX-1" source="TEwER9SfueQxtKeRNvIy-11">
          <mxGeometry relative="1" as="geometry">
            <mxPoint x="425.5999999999999" y="690" as="targetPoint" />
          </mxGeometry>
        </mxCell>
        <mxCell id="TEwER9SfueQxtKeRNvIy-11" value="Siswa melihat Data siswa" style="whiteSpace=wrap;html=1;strokeWidth=2;" vertex="1" parent="AjO_xOM7wmH8VL26TnqX-1">
          <mxGeometry x="358" y="580" width="135" height="80" as="geometry" />
        </mxCell>
        <mxCell id="TEwER9SfueQxtKeRNvIy-12" value="" style="edgeStyle=orthogonalEdgeStyle;rounded=0;orthogonalLoop=1;jettySize=auto;html=1;" edge="1" parent="AjO_xOM7wmH8VL26TnqX-1">
          <mxGeometry relative="1" as="geometry">
            <mxPoint x="425.5999999999999" y="750" as="sourcePoint" />
            <mxPoint x="425.5" y="780" as="targetPoint" />
          </mxGeometry>
        </mxCell>
        <mxCell id="30BaLSvkm6OvYdKu8xFi-2" value="" style="edgeStyle=orthogonalEdgeStyle;rounded=0;orthogonalLoop=1;jettySize=auto;html=1;" edge="1" parent="AjO_xOM7wmH8VL26TnqX-1" source="30BaLSvkm6OvYdKu8xFi-0" target="TEwER9SfueQxtKeRNvIy-1">
          <mxGeometry relative="1" as="geometry" />
        </mxCell>
        <mxCell id="30BaLSvkm6OvYdKu8xFi-0" value="Masuk" style="strokeWidth=2;html=1;shape=mxgraph.flowchart.start_1;whiteSpace=wrap;fillColor=#ffe6cc;strokeColor=#d79b00;" vertex="1" parent="AjO_xOM7wmH8VL26TnqX-1">
          <mxGeometry x="375.5" y="50" width="100" height="60" as="geometry" />
        </mxCell>
        <mxCell id="30BaLSvkm6OvYdKu8xFi-1" value="Selesai" style="strokeWidth=2;html=1;shape=mxgraph.flowchart.start_1;whiteSpace=wrap;" vertex="1" parent="AjO_xOM7wmH8VL26TnqX-1">
          <mxGeometry x="375" y="780" width="100" height="60" as="geometry" />
        </mxCell>
        <mxCell id="eAAWWpIjoX3nL70bVCGE-0" value="Siswa logout dari website" style="whiteSpace=wrap;html=1;strokeWidth=2;" vertex="1" parent="AjO_xOM7wmH8VL26TnqX-1">
          <mxGeometry x="370" y="690" width="120" height="60" as="geometry" />
        </mxCell>
        <mxCell id="UMWCDGUeGRUeOvOkS09g-0" value="&lt;span style=&quot;color: rgb(0, 0, 0); font-family: helvetica; font-size: 11px; font-style: normal; font-weight: 400; letter-spacing: normal; text-align: center; text-indent: 0px; text-transform: none; word-spacing: 0px; background-color: rgb(255, 255, 255); display: inline; float: none;&quot;&gt;Ya&lt;/span&gt;" style="text;whiteSpace=wrap;html=1;" vertex="1" parent="AjO_xOM7wmH8VL26TnqX-1">
          <mxGeometry x="435.5" y="450" width="40" height="30" as="geometry" />
        </mxCell>
      </root>
    </mxGraphModel>
  </diagram>
  <diagram id="HDnwGfna997WajTVHK9e" name="staff admin">
    <mxGraphModel dx="1086" dy="798" grid="1" gridSize="10" guides="1" tooltips="1" connect="1" arrows="1" fold="1" page="1" pageScale="1" pageWidth="850" pageHeight="1100" math="0" shadow="0">
      <root>
        <mxCell id="Fp1-HA6H6sHJhjbKyTuY-0" />
        <mxCell id="Fp1-HA6H6sHJhjbKyTuY-1" parent="Fp1-HA6H6sHJhjbKyTuY-0" />
        <mxCell id="qV5R23agycCgjqempCct-0" value="" style="edgeStyle=orthogonalEdgeStyle;rounded=0;orthogonalLoop=1;jettySize=auto;html=1;" edge="1" parent="Fp1-HA6H6sHJhjbKyTuY-1" source="qV5R23agycCgjqempCct-1" target="qV5R23agycCgjqempCct-3">
          <mxGeometry relative="1" as="geometry" />
        </mxCell>
        <mxCell id="qV5R23agycCgjqempCct-1" value="Masuk ke halaman login&amp;nbsp;" style="rounded=1;whiteSpace=wrap;html=1;absoluteArcSize=1;arcSize=14;strokeWidth=2;fillColor=#d5e8d4;strokeColor=#82b366;" vertex="1" parent="Fp1-HA6H6sHJhjbKyTuY-1">
          <mxGeometry x="380" y="150" width="110" height="60" as="geometry" />
        </mxCell>
        <mxCell id="qV5R23agycCgjqempCct-2" value="" style="edgeStyle=orthogonalEdgeStyle;rounded=0;orthogonalLoop=1;jettySize=auto;html=1;" edge="1" parent="Fp1-HA6H6sHJhjbKyTuY-1" source="qV5R23agycCgjqempCct-3" target="qV5R23agycCgjqempCct-7">
          <mxGeometry relative="1" as="geometry" />
        </mxCell>
        <mxCell id="qV5R23agycCgjqempCct-3" value="Input username dan &lt;br&gt;password sebagai&lt;br&gt;&amp;nbsp;staff" style="shape=parallelogram;html=1;strokeWidth=2;perimeter=parallelogramPerimeter;whiteSpace=wrap;rounded=1;arcSize=12;size=0.23;fillColor=#e1d5e7;strokeColor=#9673a6;" vertex="1" parent="Fp1-HA6H6sHJhjbKyTuY-1">
          <mxGeometry x="335" y="230" width="180" height="60" as="geometry" />
        </mxCell>
        <mxCell id="qV5R23agycCgjqempCct-4" style="edgeStyle=orthogonalEdgeStyle;rounded=0;orthogonalLoop=1;jettySize=auto;html=1;exitX=0.5;exitY=0;exitDx=0;exitDy=0;exitPerimeter=0;" edge="1" parent="Fp1-HA6H6sHJhjbKyTuY-1" source="qV5R23agycCgjqempCct-7" target="qV5R23agycCgjqempCct-3">
          <mxGeometry relative="1" as="geometry">
            <Array as="points">
              <mxPoint x="550" y="380" />
              <mxPoint x="550" y="270" />
            </Array>
          </mxGeometry>
        </mxCell>
        <mxCell id="qV5R23agycCgjqempCct-5" value="Tidak" style="edgeLabel;html=1;align=center;verticalAlign=middle;resizable=0;points=[];" vertex="1" connectable="0" parent="qV5R23agycCgjqempCct-4">
          <mxGeometry x="-0.1831" y="-2" relative="1" as="geometry">
            <mxPoint x="-22" y="-15" as="offset" />
          </mxGeometry>
        </mxCell>
        <mxCell id="qV5R23agycCgjqempCct-6" value="" style="edgeStyle=orthogonalEdgeStyle;rounded=0;orthogonalLoop=1;jettySize=auto;html=1;" edge="1" parent="Fp1-HA6H6sHJhjbKyTuY-1" source="qV5R23agycCgjqempCct-7" target="qV5R23agycCgjqempCct-9">
          <mxGeometry relative="1" as="geometry" />
        </mxCell>
        <mxCell id="qV5R23agycCgjqempCct-7" value="Username dan Password berhasil" style="strokeWidth=2;html=1;shape=mxgraph.flowchart.decision;whiteSpace=wrap;direction=south;" vertex="1" parent="Fp1-HA6H6sHJhjbKyTuY-1">
          <mxGeometry x="360" y="320" width="130" height="120" as="geometry" />
        </mxCell>
        <mxCell id="qV5R23agycCgjqempCct-8" value="" style="edgeStyle=orthogonalEdgeStyle;rounded=0;orthogonalLoop=1;jettySize=auto;html=1;" edge="1" parent="Fp1-HA6H6sHJhjbKyTuY-1" source="qV5R23agycCgjqempCct-9">
          <mxGeometry relative="1" as="geometry">
            <mxPoint x="425.5" y="580" as="targetPoint" />
          </mxGeometry>
        </mxCell>
        <mxCell id="qV5R23agycCgjqempCct-9" value="Berhasil masuk sebagai staff" style="whiteSpace=wrap;html=1;strokeWidth=2;" vertex="1" parent="Fp1-HA6H6sHJhjbKyTuY-1">
          <mxGeometry x="365" y="480" width="120" height="60" as="geometry" />
        </mxCell>
        <mxCell id="qV5R23agycCgjqempCct-12" value="" style="edgeStyle=orthogonalEdgeStyle;rounded=0;orthogonalLoop=1;jettySize=auto;html=1;" edge="1" parent="Fp1-HA6H6sHJhjbKyTuY-1">
          <mxGeometry relative="1" as="geometry">
            <mxPoint x="424.79999999999995" y="640" as="sourcePoint" />
            <mxPoint x="425.5" y="670" as="targetPoint" />
          </mxGeometry>
        </mxCell>
        <mxCell id="qV5R23agycCgjqempCct-15" value="selesai" style="strokeWidth=2;html=1;shape=mxgraph.flowchart.start_1;whiteSpace=wrap;" vertex="1" parent="Fp1-HA6H6sHJhjbKyTuY-1">
          <mxGeometry x="375" y="670" width="100" height="60" as="geometry" />
        </mxCell>
        <mxCell id="qV5R23agycCgjqempCct-16" value="Masuk" style="strokeWidth=2;html=1;shape=mxgraph.flowchart.start_1;whiteSpace=wrap;" vertex="1" parent="Fp1-HA6H6sHJhjbKyTuY-1">
          <mxGeometry x="375" y="50" width="100" height="60" as="geometry" />
        </mxCell>
        <mxCell id="qV5R23agycCgjqempCct-17" value="" style="endArrow=classic;html=1;exitX=0.5;exitY=1;exitDx=0;exitDy=0;exitPerimeter=0;" edge="1" parent="Fp1-HA6H6sHJhjbKyTuY-1" source="qV5R23agycCgjqempCct-16" target="qV5R23agycCgjqempCct-1">
          <mxGeometry width="50" height="50" relative="1" as="geometry">
            <mxPoint x="430" y="120" as="sourcePoint" />
            <mxPoint x="480" y="70" as="targetPoint" />
          </mxGeometry>
        </mxCell>
        <mxCell id="qV5R23agycCgjqempCct-18" value="Ya" style="text;html=1;strokeColor=none;fillColor=none;align=center;verticalAlign=middle;whiteSpace=wrap;rounded=0;" vertex="1" parent="Fp1-HA6H6sHJhjbKyTuY-1">
          <mxGeometry x="435" y="440" width="40" height="20" as="geometry" />
        </mxCell>
        <mxCell id="KCY-xpZWYS7ROXfmdlgo-0" value="Staff logout dari website jurusan rpl" style="whiteSpace=wrap;html=1;strokeWidth=2;" vertex="1" parent="Fp1-HA6H6sHJhjbKyTuY-1">
          <mxGeometry x="365" y="580" width="120" height="60" as="geometry" />
        </mxCell>
      </root>
    </mxGraphModel>
  </diagram>
  <diagram id="XqaXrSWJ8RVk3j5hGQOy" name="admin sekolah">
    <mxGraphModel dx="1086" dy="798" grid="1" gridSize="10" guides="1" tooltips="1" connect="1" arrows="1" fold="1" page="1" pageScale="1" pageWidth="850" pageHeight="1100" math="0" shadow="0">
      <root>
        <mxCell id="3aGy0V6Syj6p0mxbaDJf-0" />
        <mxCell id="3aGy0V6Syj6p0mxbaDJf-1" parent="3aGy0V6Syj6p0mxbaDJf-0" />
        <mxCell id="E46n2Oo1ipHMlOFxBMa3-0" value="" style="edgeStyle=orthogonalEdgeStyle;rounded=0;orthogonalLoop=1;jettySize=auto;html=1;" edge="1" parent="3aGy0V6Syj6p0mxbaDJf-1" source="E46n2Oo1ipHMlOFxBMa3-1" target="E46n2Oo1ipHMlOFxBMa3-3">
          <mxGeometry relative="1" as="geometry" />
        </mxCell>
        <mxCell id="E46n2Oo1ipHMlOFxBMa3-1" value="Masuk ke halaman login&amp;nbsp;" style="rounded=1;whiteSpace=wrap;html=1;absoluteArcSize=1;arcSize=14;strokeWidth=2;fillColor=#d5e8d4;strokeColor=#82b366;" vertex="1" parent="3aGy0V6Syj6p0mxbaDJf-1">
          <mxGeometry x="370" y="140" width="110" height="60" as="geometry" />
        </mxCell>
        <mxCell id="E46n2Oo1ipHMlOFxBMa3-2" value="" style="edgeStyle=orthogonalEdgeStyle;rounded=0;orthogonalLoop=1;jettySize=auto;html=1;" edge="1" parent="3aGy0V6Syj6p0mxbaDJf-1" source="E46n2Oo1ipHMlOFxBMa3-3" target="E46n2Oo1ipHMlOFxBMa3-7">
          <mxGeometry relative="1" as="geometry" />
        </mxCell>
        <mxCell id="E46n2Oo1ipHMlOFxBMa3-3" value="Input username dan &lt;br&gt;password sebagai&lt;br&gt;admin sekolah" style="shape=parallelogram;html=1;strokeWidth=2;perimeter=parallelogramPerimeter;whiteSpace=wrap;rounded=1;arcSize=12;size=0.23;fillColor=#e1d5e7;strokeColor=#9673a6;" vertex="1" parent="3aGy0V6Syj6p0mxbaDJf-1">
          <mxGeometry x="335" y="230" width="180" height="60" as="geometry" />
        </mxCell>
        <mxCell id="E46n2Oo1ipHMlOFxBMa3-4" style="edgeStyle=orthogonalEdgeStyle;rounded=0;orthogonalLoop=1;jettySize=auto;html=1;exitX=0.5;exitY=0;exitDx=0;exitDy=0;exitPerimeter=0;" edge="1" parent="3aGy0V6Syj6p0mxbaDJf-1" source="E46n2Oo1ipHMlOFxBMa3-7" target="E46n2Oo1ipHMlOFxBMa3-3">
          <mxGeometry relative="1" as="geometry">
            <Array as="points">
              <mxPoint x="550" y="380" />
              <mxPoint x="550" y="270" />
            </Array>
          </mxGeometry>
        </mxCell>
        <mxCell id="E46n2Oo1ipHMlOFxBMa3-5" value="Tidak" style="edgeLabel;html=1;align=center;verticalAlign=middle;resizable=0;points=[];" vertex="1" connectable="0" parent="E46n2Oo1ipHMlOFxBMa3-4">
          <mxGeometry x="-0.1831" y="-2" relative="1" as="geometry">
            <mxPoint x="-22" y="-15" as="offset" />
          </mxGeometry>
        </mxCell>
        <mxCell id="E46n2Oo1ipHMlOFxBMa3-6" value="" style="edgeStyle=orthogonalEdgeStyle;rounded=0;orthogonalLoop=1;jettySize=auto;html=1;" edge="1" parent="3aGy0V6Syj6p0mxbaDJf-1" source="E46n2Oo1ipHMlOFxBMa3-7" target="E46n2Oo1ipHMlOFxBMa3-9">
          <mxGeometry relative="1" as="geometry" />
        </mxCell>
        <mxCell id="E46n2Oo1ipHMlOFxBMa3-7" value="Apakah username dan Password sesuai?" style="strokeWidth=2;html=1;shape=mxgraph.flowchart.decision;whiteSpace=wrap;direction=south;fillColor=#fff2cc;strokeColor=#d6b656;" vertex="1" parent="3aGy0V6Syj6p0mxbaDJf-1">
          <mxGeometry x="360" y="320" width="130" height="120" as="geometry" />
        </mxCell>
        <mxCell id="E46n2Oo1ipHMlOFxBMa3-8" value="" style="edgeStyle=orthogonalEdgeStyle;rounded=0;orthogonalLoop=1;jettySize=auto;html=1;" edge="1" parent="3aGy0V6Syj6p0mxbaDJf-1" source="E46n2Oo1ipHMlOFxBMa3-9" target="E46n2Oo1ipHMlOFxBMa3-11">
          <mxGeometry relative="1" as="geometry" />
        </mxCell>
        <mxCell id="E46n2Oo1ipHMlOFxBMa3-9" value="Berhasil masuk sebagai admin sekolah" style="whiteSpace=wrap;html=1;strokeWidth=2;" vertex="1" parent="3aGy0V6Syj6p0mxbaDJf-1">
          <mxGeometry x="365" y="480" width="120" height="60" as="geometry" />
        </mxCell>
        <mxCell id="E46n2Oo1ipHMlOFxBMa3-10" value="" style="edgeStyle=orthogonalEdgeStyle;rounded=0;orthogonalLoop=1;jettySize=auto;html=1;" edge="1" parent="3aGy0V6Syj6p0mxbaDJf-1" source="E46n2Oo1ipHMlOFxBMa3-11">
          <mxGeometry relative="1" as="geometry">
            <mxPoint x="425.5999999999999" y="690" as="targetPoint" />
          </mxGeometry>
        </mxCell>
        <mxCell id="E46n2Oo1ipHMlOFxBMa3-11" value="Admin sekolah mengakses fitur Data Guru dan Generate Laporan" style="whiteSpace=wrap;html=1;strokeWidth=2;" vertex="1" parent="3aGy0V6Syj6p0mxbaDJf-1">
          <mxGeometry x="358" y="580" width="135" height="80" as="geometry" />
        </mxCell>
        <mxCell id="E46n2Oo1ipHMlOFxBMa3-12" value="" style="edgeStyle=orthogonalEdgeStyle;rounded=0;orthogonalLoop=1;jettySize=auto;html=1;" edge="1" parent="3aGy0V6Syj6p0mxbaDJf-1">
          <mxGeometry relative="1" as="geometry">
            <mxPoint x="425.5" y="780" as="targetPoint" />
            <mxPoint x="425.5999999999999" y="750" as="sourcePoint" />
          </mxGeometry>
        </mxCell>
        <mxCell id="E46n2Oo1ipHMlOFxBMa3-14" value="" style="edgeStyle=orthogonalEdgeStyle;rounded=0;orthogonalLoop=1;jettySize=auto;html=1;" edge="1" parent="3aGy0V6Syj6p0mxbaDJf-1" source="E46n2Oo1ipHMlOFxBMa3-15" target="E46n2Oo1ipHMlOFxBMa3-1">
          <mxGeometry relative="1" as="geometry" />
        </mxCell>
        <mxCell id="E46n2Oo1ipHMlOFxBMa3-15" value="Masuk" style="strokeWidth=2;html=1;shape=mxgraph.flowchart.start_1;whiteSpace=wrap;fillColor=#ffe6cc;strokeColor=#d79b00;" vertex="1" parent="3aGy0V6Syj6p0mxbaDJf-1">
          <mxGeometry x="375.5" y="50" width="100" height="60" as="geometry" />
        </mxCell>
        <mxCell id="E46n2Oo1ipHMlOFxBMa3-16" value="Selesai" style="strokeWidth=2;html=1;shape=mxgraph.flowchart.start_1;whiteSpace=wrap;" vertex="1" parent="3aGy0V6Syj6p0mxbaDJf-1">
          <mxGeometry x="375" y="780" width="100" height="60" as="geometry" />
        </mxCell>
        <mxCell id="8yl2HrksGZLS3buh3L_e-0" value="Admin sekolah logout dari website jurusan rpl" style="whiteSpace=wrap;html=1;strokeWidth=2;" vertex="1" parent="3aGy0V6Syj6p0mxbaDJf-1">
          <mxGeometry x="360" y="690" width="140" height="70" as="geometry" />
        </mxCell>
        <mxCell id="Kl9567qdSLh1zhJhsruK-0" value="Ya" style="edgeLabel;html=1;align=center;verticalAlign=middle;resizable=0;points=[];" vertex="1" connectable="0" parent="3aGy0V6Syj6p0mxbaDJf-1">
          <mxGeometry x="440" y="450" as="geometry">
            <mxPoint x="-16" as="offset" />
          </mxGeometry>
        </mxCell>
      </root>
    </mxGraphModel>
  </diagram>
  <diagram id="_ev4ELEdzNOl0PR2GwkI" name="orang tua">
    <mxGraphModel dx="1086" dy="798" grid="1" gridSize="10" guides="1" tooltips="1" connect="1" arrows="1" fold="1" page="1" pageScale="1" pageWidth="850" pageHeight="1100" math="0" shadow="0">
      <root>
        <mxCell id="IeG_MmywXbHCqNy4l4em-0" />
        <mxCell id="IeG_MmywXbHCqNy4l4em-1" parent="IeG_MmywXbHCqNy4l4em-0" />
        <mxCell id="IeG_MmywXbHCqNy4l4em-2" value="" style="edgeStyle=orthogonalEdgeStyle;rounded=0;orthogonalLoop=1;jettySize=auto;html=1;" edge="1" parent="IeG_MmywXbHCqNy4l4em-1" source="IeG_MmywXbHCqNy4l4em-3" target="IeG_MmywXbHCqNy4l4em-5">
          <mxGeometry relative="1" as="geometry" />
        </mxCell>
        <mxCell id="IeG_MmywXbHCqNy4l4em-3" value="Masuk ke halaman login&amp;nbsp;" style="rounded=1;whiteSpace=wrap;html=1;absoluteArcSize=1;arcSize=14;strokeWidth=2;fillColor=#d5e8d4;strokeColor=#82b366;" vertex="1" parent="IeG_MmywXbHCqNy4l4em-1">
          <mxGeometry x="370" y="140" width="110" height="60" as="geometry" />
        </mxCell>
        <mxCell id="IeG_MmywXbHCqNy4l4em-4" value="" style="edgeStyle=orthogonalEdgeStyle;rounded=0;orthogonalLoop=1;jettySize=auto;html=1;" edge="1" parent="IeG_MmywXbHCqNy4l4em-1" source="IeG_MmywXbHCqNy4l4em-5" target="IeG_MmywXbHCqNy4l4em-9">
          <mxGeometry relative="1" as="geometry" />
        </mxCell>
        <mxCell id="IeG_MmywXbHCqNy4l4em-5" value="Input username dan &lt;br&gt;password sebagai&lt;br&gt;orang tua" style="shape=parallelogram;html=1;strokeWidth=2;perimeter=parallelogramPerimeter;whiteSpace=wrap;rounded=1;arcSize=12;size=0.23;fillColor=#e1d5e7;strokeColor=#9673a6;" vertex="1" parent="IeG_MmywXbHCqNy4l4em-1">
          <mxGeometry x="335" y="230" width="180" height="60" as="geometry" />
        </mxCell>
        <mxCell id="IeG_MmywXbHCqNy4l4em-6" style="edgeStyle=orthogonalEdgeStyle;rounded=0;orthogonalLoop=1;jettySize=auto;html=1;exitX=0.5;exitY=0;exitDx=0;exitDy=0;exitPerimeter=0;" edge="1" parent="IeG_MmywXbHCqNy4l4em-1" source="IeG_MmywXbHCqNy4l4em-9" target="IeG_MmywXbHCqNy4l4em-5">
          <mxGeometry relative="1" as="geometry">
            <Array as="points">
              <mxPoint x="550" y="380" />
              <mxPoint x="550" y="270" />
            </Array>
          </mxGeometry>
        </mxCell>
        <mxCell id="IeG_MmywXbHCqNy4l4em-7" value="Tidak" style="edgeLabel;html=1;align=center;verticalAlign=middle;resizable=0;points=[];" vertex="1" connectable="0" parent="IeG_MmywXbHCqNy4l4em-6">
          <mxGeometry x="-0.1831" y="-2" relative="1" as="geometry">
            <mxPoint x="-22" y="-15" as="offset" />
          </mxGeometry>
        </mxCell>
        <mxCell id="IeG_MmywXbHCqNy4l4em-8" value="" style="edgeStyle=orthogonalEdgeStyle;rounded=0;orthogonalLoop=1;jettySize=auto;html=1;" edge="1" parent="IeG_MmywXbHCqNy4l4em-1" source="IeG_MmywXbHCqNy4l4em-9" target="IeG_MmywXbHCqNy4l4em-11">
          <mxGeometry relative="1" as="geometry" />
        </mxCell>
        <mxCell id="IeG_MmywXbHCqNy4l4em-9" value="Apakah username dan password sesuai?&amp;nbsp;" style="strokeWidth=2;html=1;shape=mxgraph.flowchart.decision;whiteSpace=wrap;direction=south;fillColor=#fff2cc;strokeColor=#d6b656;" vertex="1" parent="IeG_MmywXbHCqNy4l4em-1">
          <mxGeometry x="360" y="320" width="130" height="120" as="geometry" />
        </mxCell>
        <mxCell id="IeG_MmywXbHCqNy4l4em-10" value="" style="edgeStyle=orthogonalEdgeStyle;rounded=0;orthogonalLoop=1;jettySize=auto;html=1;" edge="1" parent="IeG_MmywXbHCqNy4l4em-1" source="IeG_MmywXbHCqNy4l4em-11" target="IeG_MmywXbHCqNy4l4em-13">
          <mxGeometry relative="1" as="geometry" />
        </mxCell>
        <mxCell id="IeG_MmywXbHCqNy4l4em-11" value="Berhasil masuk sebagai orang tua" style="whiteSpace=wrap;html=1;strokeWidth=2;" vertex="1" parent="IeG_MmywXbHCqNy4l4em-1">
          <mxGeometry x="365" y="480" width="120" height="60" as="geometry" />
        </mxCell>
        <mxCell id="IeG_MmywXbHCqNy4l4em-12" value="" style="edgeStyle=orthogonalEdgeStyle;rounded=0;orthogonalLoop=1;jettySize=auto;html=1;" edge="1" parent="IeG_MmywXbHCqNy4l4em-1" source="IeG_MmywXbHCqNy4l4em-13">
          <mxGeometry relative="1" as="geometry">
            <mxPoint x="425.5999999999999" y="690" as="targetPoint" />
          </mxGeometry>
        </mxCell>
        <mxCell id="IeG_MmywXbHCqNy4l4em-13" value="orang tua melihat Data siswa dan Data guru" style="whiteSpace=wrap;html=1;strokeWidth=2;" vertex="1" parent="IeG_MmywXbHCqNy4l4em-1">
          <mxGeometry x="358" y="580" width="135" height="80" as="geometry" />
        </mxCell>
        <mxCell id="IeG_MmywXbHCqNy4l4em-14" value="" style="edgeStyle=orthogonalEdgeStyle;rounded=0;orthogonalLoop=1;jettySize=auto;html=1;" edge="1" parent="IeG_MmywXbHCqNy4l4em-1">
          <mxGeometry relative="1" as="geometry">
            <mxPoint x="425.5" y="780" as="targetPoint" />
            <mxPoint x="425.5999999999999" y="750" as="sourcePoint" />
          </mxGeometry>
        </mxCell>
        <mxCell id="IeG_MmywXbHCqNy4l4em-16" value="" style="edgeStyle=orthogonalEdgeStyle;rounded=0;orthogonalLoop=1;jettySize=auto;html=1;" edge="1" parent="IeG_MmywXbHCqNy4l4em-1" source="IeG_MmywXbHCqNy4l4em-17" target="IeG_MmywXbHCqNy4l4em-3">
          <mxGeometry relative="1" as="geometry" />
        </mxCell>
        <mxCell id="IeG_MmywXbHCqNy4l4em-17" value="Masuk" style="strokeWidth=2;html=1;shape=mxgraph.flowchart.start_1;whiteSpace=wrap;fillColor=#ffe6cc;strokeColor=#d79b00;" vertex="1" parent="IeG_MmywXbHCqNy4l4em-1">
          <mxGeometry x="375.5" y="50" width="100" height="60" as="geometry" />
        </mxCell>
        <mxCell id="IeG_MmywXbHCqNy4l4em-18" value="Selesai" style="strokeWidth=2;html=1;shape=mxgraph.flowchart.start_1;whiteSpace=wrap;" vertex="1" parent="IeG_MmywXbHCqNy4l4em-1">
          <mxGeometry x="375" y="780" width="100" height="60" as="geometry" />
        </mxCell>
        <mxCell id="Mi2J2QW36771J5eg3uaA-0" value="Ya" style="edgeLabel;html=1;align=center;verticalAlign=middle;resizable=0;points=[];" vertex="1" connectable="0" parent="IeG_MmywXbHCqNy4l4em-1">
          <mxGeometry x="475" y="370" as="geometry">
            <mxPoint x="-36" y="84" as="offset" />
          </mxGeometry>
        </mxCell>
        <mxCell id="Mi2J2QW36771J5eg3uaA-1" value="Orang tua logout dari website jurusan rpl" style="whiteSpace=wrap;html=1;strokeWidth=2;" vertex="1" parent="IeG_MmywXbHCqNy4l4em-1">
          <mxGeometry x="358" y="690" width="135" height="60" as="geometry" />
        </mxCell>
      </root>
    </mxGraphModel>
  </diagram>
</mxfile>
